<?xml version="1.0" encoding="UTF-8"?>
<svg version="1.1" xmlns="http://www.w3.org/2000/svg" width="647" height="328">
<path d="M0 0 C7.71083262 0.85675918 14.16150597 2.25638585 21.5 4.4375 C23.14355469 4.90639648 23.14355469 4.90639648 24.8203125 5.38476562 C25.85929687 5.68962891 26.89828125 5.99449219 27.96875 6.30859375 C28.91169922 6.58501709 29.85464844 6.86144043 30.82617188 7.14624023 C33 8 33 8 34 10 C36.14534731 10.60265805 38.3181369 11.10952625 40.5 11.5625 C46.90646492 12.90646492 46.90646492 12.90646492 48 14 C48.04063832 15.66617115 48.042721 17.33388095 48 19 C49.918125 18.566875 49.918125 18.566875 51.875 18.125 C56.97496993 17.10208339 62.08482362 16.45357536 67.25 15.875 C68.01812012 15.78750488 68.78624023 15.70000977 69.57763672 15.60986328 C73.74054356 15.16096662 77.80554764 14.9064931 82 15 C82.66 13.68 83.32 12.36 84 11 C86.6048359 10.91754916 89.20695842 10.85883054 91.8125 10.8125 C92.89047852 10.77479492 92.89047852 10.77479492 93.99023438 10.73632812 C104.53576301 10.59695991 112.702157 14.07240809 121.5 19.5625 C131.1984791 25.30668353 139.84360803 26.83593541 151 27 C150.01 22.545 150.01 22.545 149 18 C149.98742187 17.74605469 150.97484375 17.49210937 151.9921875 17.23046875 C153.28661896 16.88341104 154.58088121 16.53572179 155.875 16.1875 C157.15117187 15.85105469 158.42734375 15.51460937 159.7421875 15.16796875 C163.24571468 14.27713341 163.24571468 14.27713341 165 11 C167.46954958 10.04087033 169.84172635 9.24752382 172.37890625 8.51953125 C173.10617416 8.30181564 173.83344208 8.08410004 174.58274841 7.85978699 C176.90641281 7.167035 179.23429322 6.48980961 181.5625 5.8125 C183.13505585 5.34537697 184.70732555 4.87728945 186.27929688 4.40820312 C197.75734237 1 197.75734237 1 199 1 C199 25.42 199 49.84 199 75 C190.75 76.32 182.5 77.64 174 79 C174 78.01 174 77.02 174 76 C169.38 76 164.76 76 160 76 C159.01 72.04 158.02 68.08 157 64 C153.04 65.485 153.04 65.485 149 67 C149.2475 67.70125 149.495 68.4025 149.75 69.125 C150.11129349 73.27987514 148.62243057 74.83963496 146 78 C140.73684211 82 140.73684211 82 138 82 C137.79375 82.7425 137.5875 83.485 137.375 84.25 C135.13757818 88.72484364 131.312147 90.35731575 126.9375 92.5 C123.94027121 93.85712766 123.94027121 93.85712766 121.75 96.125 C118.2565867 98.50687271 115.55624193 98.56015055 111.40234375 98.7265625 C108.99087953 98.86035384 108.99087953 98.86035384 107.01171875 100.00390625 C100.71821906 103.12010513 92.45966224 100.90239637 86.09375 98.94921875 C83.07296962 97.57972317 81.4745924 95.94918481 80 93 C79.41992188 93.05800781 78.83984375 93.11601562 78.2421875 93.17578125 C73.91381349 93.42576985 70.91833781 93.47550918 67.4375 90.6875 C65 88 65 88 65 85 C64.113125 85.0825 63.22625 85.165 62.3125 85.25 C58.16554232 84.93702206 56.76554997 84.08161282 54 81 C53.1875 77.25 53.1875 77.25 53 74 C51.88625 73.773125 50.7725 73.54625 49.625 73.3125 C46 72 46 72 44.5625 69.375 C44.376875 68.59125 44.19125 67.8075 44 67 C43.01 67.495 43.01 67.495 42 68 C41.505 69.98 41.505 69.98 41 72 C36.38 72.33 31.76 72.66 27 73 C27 73.99 27 74.98 27 76 C13.635 74.515 13.635 74.515 0 73 C0 48.91 0 24.82 0 0 Z M35 16 C32.69 33.16 30.38 50.32 28 68 C30.64 67.67 33.28 67.34 36 67 C37.86833739 59.46194611 38.77222062 51.96881345 39.5625 44.25 C39.81181151 41.85916659 40.06303903 39.46853201 40.31640625 37.078125 C40.42412354 36.03043945 40.53184082 34.98275391 40.64282227 33.90332031 C40.97183265 31.22895842 41.45916245 28.63779408 42 26 C42.06266512 24.56371543 42.08686347 23.1249445 42.0625 21.6875 C42.041875 20.470625 42.02125 19.25375 42 18 C39.69 17.34 37.38 16.68 35 16 Z M161 20 C159.02 20.66 157.04 21.32 155 22 C157.97 38.17 160.94 54.34 164 71 C166.64 71 169.28 71 172 71 C171.43685513 64.34459653 170.52849441 57.85716246 169.22265625 51.30859375 C168.96554115 50.00161278 168.96554115 50.00161278 168.70323181 48.66822815 C168.34344694 46.84855897 167.9811649 45.02938185 167.61645508 43.21069336 C167.05802486 40.41509668 166.5140996 37.6169123 165.97070312 34.81835938 C165.61806205 33.04409679 165.26457751 31.27000159 164.91015625 29.49609375 C164.74862564 28.65767441 164.58709503 27.81925507 164.42066956 26.95542908 C164.01269433 24.9557779 163.51487798 22.97482892 163 21 C162.34 20.67 161.68 20.34 161 20 Z M68.58203125 21.55859375 C67.32841797 21.69716797 66.07480469 21.83574219 64.78320312 21.97851562 C63.47287109 22.12998047 62.16253906 22.28144531 60.8125 22.4375 C59.47728064 22.58718827 58.14199469 22.73628381 56.80664062 22.88476562 C53.53705747 23.25067565 50.26828045 23.62265958 47 24 C45.09032251 36.31105422 43.36351084 48.61611331 42 61 C42.89203125 60.94199219 43.7840625 60.88398438 44.703125 60.82421875 C45.87359375 60.77910156 47.0440625 60.73398438 48.25 60.6875 C49.41015625 60.62949219 50.5703125 60.57148438 51.765625 60.51171875 C55 61 55 61 57.296875 63.33203125 C57.85890625 64.21246094 58.4209375 65.09289062 59 66 C60.63778399 69.2117961 60.63778399 69.2117961 63.3828125 69.51171875 C64.28773438 69.56972656 65.19265625 69.62773437 66.125 69.6875 C67.49011719 69.78611328 67.49011719 69.78611328 68.8828125 69.88671875 C69.93082031 69.94279297 69.93082031 69.94279297 71 70 C71.33 72.31 71.66 74.62 72 77 C74.59372458 75.92673466 75.82425055 75.27161279 77.375 72.875 C79 71 79 71 82 70.625 C85 71 85 71 88 73 C88.70052461 75.663063 88.77744818 78.24035737 89 81 C91.31 81.33 93.62 81.66 96 82 C97.1875 84.6875 97.1875 84.6875 98 88 C96.625 90.75 96.625 90.75 95 93 C95 93.66 95 94.32 95 95 C99.19589427 96.16552619 99.82091936 96.08954032 104 94 C102.68 91.36 101.36 88.72 100 86 C101.98 85.505 101.98 85.505 104 85 C104.43570313 85.58910156 104.87140625 86.17820312 105.3203125 86.78515625 C107.10975134 89.04325764 108.84392351 91.08637387 111 93 C114.25030044 93.43134773 114.25030044 93.43134773 117 92 C117.99 91.01 118.98 90.02 120 89 C114.06 81.575 114.06 81.575 108 74 C108.66 72.68 109.32 71.36 110 70 C110.66 70 111.32 70 112 70 C113.56246919 71.88563644 115.00977577 73.76640899 116.4375 75.75 C117.03014648 76.55824219 117.03014648 76.55824219 117.63476562 77.3828125 C118.7605968 78.91888832 119.88043513 80.45935102 121 82 C121.99720476 83.33542519 122.99587206 84.66977263 124 86 C126.31 85.34 128.62 84.68 131 84 C132.01926657 81.85298645 132.01926657 81.85298645 132 79 C130.46049256 76.39377801 128.43279506 74.26999608 126.375 72.0625 C125.29918898 70.8661463 124.22366542 69.66953404 123.1484375 68.47265625 C122.62217773 67.89273926 122.09591797 67.31282227 121.55371094 66.71533203 C115 59.47988686 115 59.47988686 115 56 C116.32 55.67 117.64 55.34 119 55 C121.08365072 57.56224206 123.16686311 60.12484017 125.25 62.6875 C125.83652344 63.40873047 126.42304688 64.12996094 127.02734375 64.87304688 C130.0326949 68.57064182 133.03052708 72.27345849 136 76 C138.40877257 75.88658466 138.40877257 75.88658466 141 75 C142.67958797 72.50654548 142.67958797 72.50654548 144 70 C143.23816406 69.18917969 142.47632813 68.37835938 141.69140625 67.54296875 C136.818372 62.32809242 131.99613852 57.11022156 127.5 51.5625 C126.78199219 50.68207031 126.06398438 49.80164063 125.32421875 48.89453125 C124.09548466 47.36429266 122.87013041 45.83100211 121.67431641 44.27490234 C114.84776473 35.40299525 108.21664859 27.9580899 97 25 C94.23655095 25.29864363 92.32012728 25.9425271 89.82421875 27.1328125 C88 28 88 28 85.25 28 C82.15336597 26.62371821 80.31604662 24.43794381 78 22 C74.46133486 20.82044495 72.28052736 21.14021184 68.58203125 21.55859375 Z M85 85 C86 87 86 87 86 87 Z " fill="#0349A6" transform="translate(241,69)"/>
<path d="M0 0 C6.02570679 2.58932369 9.27923257 9.94864913 12.45117188 15.33544922 C14.48833949 18.72742257 16.69818314 21.99022954 18.9206543 25.26269531 C21.29229691 28.77068918 23.6195576 32.3085092 25.95556641 35.84033203 C26.28556641 24.29033203 26.61556641 12.74033203 26.95556641 0.84033203 C33.95556641 -0.15966797 33.95556641 -0.15966797 42.95556641 0.84033203 C42.95556641 21.96033203 42.95556641 43.08033203 42.95556641 64.84033203 C37.34556641 64.84033203 31.73556641 64.84033203 25.95556641 64.84033203 C22.49609865 61.22119653 21.06364521 59.13561325 18.95556641 54.84033203 C17.68886037 52.90707837 16.39603705 50.99074011 15.08056641 49.09033203 C10.64968793 42.37687979 6.30532599 35.60662471 1.95556641 28.84033203 C1.62556641 40.72033203 1.29556641 52.60033203 0.95556641 64.84033203 C-4.32443359 64.84033203 -9.60443359 64.84033203 -15.04443359 64.84033203 C-15.04443359 43.72033203 -15.04443359 22.60033203 -15.04443359 0.84033203 C-10.46703376 -1.44836789 -4.89776233 -1.12971807 0 0 Z " fill="#101010" transform="translate(404.04443359375,198.15966796875)"/>
<path d="M0 0 C3.26301348 2.76466233 6.09958495 5.27337666 7.5234375 9.3828125 C7.5234375 12.0228125 7.5234375 14.6628125 7.5234375 17.3828125 C2.2434375 18.7028125 -3.0365625 20.0228125 -8.4765625 21.3828125 C-8.9715625 19.2171875 -8.9715625 19.2171875 -9.4765625 17.0078125 C-10.58894716 13.5887758 -10.58894716 13.5887758 -13.17578125 11.26953125 C-17.41643412 10.04482404 -21.33306276 10.350514 -25.6171875 11.19140625 C-28.72735076 13.18426296 -30.21211025 16.01680463 -31.4765625 19.3828125 C-31.99410656 22.59262771 -31.99307274 25.70079527 -31.9140625 28.9453125 C-31.92115234 29.76966797 -31.92824219 30.59402344 -31.93554688 31.44335938 C-31.88316573 36.48403748 -31.24807316 40.0198748 -28.4765625 44.3828125 C-24.8491889 47.58343627 -21.37147314 47.905977 -16.69921875 47.734375 C-13.15905108 47.17441878 -11.07757862 45.78875241 -8.4765625 43.3828125 C-7.51436548 40.75514861 -7.51436548 40.75514861 -7.4765625 38.3828125 C-5.1665625 38.3828125 -2.8565625 38.3828125 -0.4765625 38.3828125 C-0.4765625 39.0428125 -0.4765625 39.7028125 -0.4765625 40.3828125 C2.4934375 41.0428125 5.4634375 41.7028125 8.5234375 42.3828125 C7.44726566 48.83984356 6.40747816 52.71584032 1.5234375 57.3828125 C-7.49041122 63.23796209 -18.00142418 64.44609732 -28.4765625 62.3828125 C-37.12008378 59.96219811 -42.87901071 55.12890216 -47.6015625 47.5859375 C-52.40814664 38.17304356 -51.9443369 25.15655211 -49.74609375 15.01171875 C-46.88512443 7.33965001 -42.18238077 2.16075599 -34.9375 -1.58203125 C-24.2433764 -6.08035308 -9.97671633 -6.51476429 0 0 Z " fill="#101010" transform="translate(143.4765625,201.6171875)"/>
<path d="M0 0 C4.9199341 3.50072234 6.25736754 6.52401484 7.25 12.3125 C7.38826963 13.931126 7.49311549 15.55291432 7.56640625 17.17578125 C7.60830078 18.06201172 7.65019531 18.94824219 7.69335938 19.86132812 C7.73267578 20.77333984 7.77199219 21.68535156 7.8125 22.625 C7.85568359 23.55634766 7.89886719 24.48769531 7.94335938 25.44726562 C8.04897225 27.73554454 8.15107752 30.02392372 8.25 32.3125 C9.57 32.6425 10.89 32.9725 12.25 33.3125 C11.94240822 35.29243541 11.6287932 37.27143599 11.3125 39.25 C11.13847656 40.35214844 10.96445313 41.45429688 10.78515625 42.58984375 C10.25 45.3125 10.25 45.3125 9.25 46.3125 C4.63266643 46.90546284 0.62948523 46.98135603 -3.3125 44.3125 C-4.116875 43.6525 -4.92125 42.9925 -5.75 42.3125 C-8.24361571 43.51631448 -10.43143083 44.76678722 -12.75 46.3125 C-19.20508901 47.02973211 -25.25589836 47.11610883 -30.75 43.3125 C-33.2156856 41.27193261 -33.70657975 40.44276076 -34.75 37.3125 C-35.18245682 32.12301816 -35.06668592 28.30654798 -32.21875 23.8515625 C-27.91724883 19.3441384 -20.74430898 17.41010529 -14.671875 17.26171875 C-12.69787124 17.25136558 -10.72374743 17.27904665 -8.75 17.3125 C-9.41 15.3325 -10.07 13.3525 -10.75 11.3125 C-12.4 11.3125 -14.05 11.3125 -15.75 11.3125 C-16.41 13.2925 -17.07 15.2725 -17.75 17.3125 C-18.08 16.6525 -18.41 15.9925 -18.75 15.3125 C-21.20141886 14.88041346 -21.20141886 14.88041346 -24.0625 14.75 C-27.41758783 14.53050827 -30.51344731 14.24272061 -33.75 13.3125 C-33.51076631 9.2455272 -33.15939331 6.85835774 -30.6875 3.5625 C-22.33330016 -2.83646158 -9.73959118 -4.43692487 0 0 Z M-14.3125 27.4375 C-17.95151357 28.92347421 -17.95151357 28.92347421 -18.6875 32 C-18.708125 32.763125 -18.72875 33.52625 -18.75 34.3125 C-16.06026772 35.05964785 -14.23221402 35.4330535 -11.5 34.75 C-9.42419675 33.33954777 -9.42419675 33.33954777 -9 30.1875 C-8.9175 29.23875 -8.835 28.29 -8.75 27.3125 C-10.95153746 25.9218166 -10.95153746 25.9218166 -14.3125 27.4375 Z " fill="#101010" transform="translate(190.75,217.6875)"/>
<path d="M0 0 C4.94487461 3.86729903 7.48512218 8.00556392 8.61328125 14.26171875 C8.61328125 17.89171875 8.61328125 21.52171875 8.61328125 25.26171875 C-0.62671875 25.26171875 -9.86671875 25.26171875 -19.38671875 25.26171875 C-18.05753914 30.73996956 -18.05753914 30.73996956 -16.38671875 32.26171875 C-14.70062909 32.33377386 -13.01171216 32.34557943 -11.32421875 32.32421875 C-10.40511719 32.31519531 -9.48601562 32.30617187 -8.5390625 32.296875 C-7.82878906 32.28527344 -7.11851562 32.27367187 -6.38671875 32.26171875 C-6.05671875 31.27171875 -5.72671875 30.28171875 -5.38671875 29.26171875 C-3.80304128 29.40376616 -2.21978557 29.55052028 -0.63671875 29.69921875 C0.245 29.78042969 1.12671875 29.86164063 2.03515625 29.9453125 C4.30678577 30.2241034 6.41179948 30.64962452 8.61328125 31.26171875 C7.35407688 35.77386773 5.94547658 38.92952342 2.61328125 42.26171875 C-5.84228773 46.90399192 -13.47606194 46.82318251 -22.65234375 44.19140625 C-28.23788904 42.29232085 -31.25608547 39.97803455 -34.26171875 34.94921875 C-37.62436002 27.59276083 -37.70138301 19.24765289 -35.65234375 11.4765625 C-33.2590948 5.60133249 -29.86840799 1.79297381 -24.44921875 -1.55078125 C-16.95242617 -4.41139947 -6.90400228 -4.21336328 0 0 Z M-17.57421875 10.07421875 C-19.70572768 12.17325794 -19.70572768 12.17325794 -19.38671875 15.26171875 C-15.75671875 15.26171875 -12.12671875 15.26171875 -8.38671875 15.26171875 C-8.71671875 13.61171875 -9.04671875 11.96171875 -9.38671875 10.26171875 C-12.95494432 7.8829017 -14.19375264 7.27326112 -17.57421875 10.07421875 Z " fill="#101010" transform="translate(282.38671875,218.73828125)"/>
<path d="M0 0 C4.97728353 3.21449562 8.69605134 6.94999552 10.375 12.75 C11 16.9375 11 16.9375 11 26.9375 C1.76 27.2675 -7.48 27.5975 -17 27.9375 C-15.54711014 32.5216963 -15.54711014 32.5216963 -14 33.9375 C-12.31391034 34.00955511 -10.62499341 34.02136068 -8.9375 34 C-8.01839844 33.99097656 -7.09929687 33.98195312 -6.15234375 33.97265625 C-5.44207031 33.96105469 -4.73179687 33.94945312 -4 33.9375 C-3.67 32.9475 -3.34 31.9575 -3 30.9375 C-1.41632253 31.07954741 0.16693318 31.22630153 1.75 31.375 C2.63171875 31.45621094 3.5134375 31.53742188 4.421875 31.62109375 C6.69350452 31.89988465 8.79851823 32.32540577 11 32.9375 C9.43541965 39.05358683 6.71101242 42.31010447 1.3125 45.55078125 C-2.4567132 47.12869479 -5.72528716 47.47602782 -9.75 47.4375 C-10.80344604 47.42783203 -10.80344604 47.42783203 -11.87817383 47.41796875 C-18.05473641 47.20231755 -23.12428519 45.9336741 -28 41.9375 C-34.5821633 34.06951876 -34.56404745 25.77243639 -34 15.9375 C-32.77216993 9.52764696 -29.57137345 5.58135656 -24.390625 1.74609375 C-17.47073178 -2.49751598 -7.58704287 -2.70362329 0 0 Z M-15.1875 11.75 C-17.31900893 13.84903919 -17.31900893 13.84903919 -17 16.9375 C-13.37 16.9375 -9.74 16.9375 -6 16.9375 C-6.33 15.2875 -6.66 13.6375 -7 11.9375 C-10.56822557 9.55868295 -11.80703389 8.94904237 -15.1875 11.75 Z " fill="#101010" transform="translate(330,217.0625)"/>
<path d="M0 0 C3.87270851 2.20796956 6.80778227 4.76846116 8.421875 8.984375 C8.76992188 10.47710937 8.76992188 10.47710937 9.125 12 C9.36734375 12.98484375 9.6096875 13.9696875 9.859375 14.984375 C10.375 18.25 10.375 18.25 10.375 26.25 C0.805 26.25 -8.765 26.25 -18.625 26.25 C-16.97422098 30.00170424 -16.97422098 30.00170424 -14.625 33.25 C-12.93891034 33.32205511 -11.24999341 33.33386068 -9.5625 33.3125 C-8.64339844 33.30347656 -7.72429687 33.29445312 -6.77734375 33.28515625 C-6.06707031 33.27355469 -5.35679687 33.26195312 -4.625 33.25 C-4.295 32.26 -3.965 31.27 -3.625 30.25 C-2.04090006 30.36487748 -0.45771037 30.49234508 1.125 30.625 C2.00671875 30.69460937 2.8884375 30.76421875 3.796875 30.8359375 C6.36566382 31.24850055 8.13341015 31.96160957 10.375 33.25 C7.91643224 39.12324521 4.93377868 41.92623128 -0.3359375 45.3671875 C-6.95026864 47.91810702 -17.17255278 47.29103089 -23.75 44.75 C-28.63564662 42.12934664 -32.38972542 37.71181888 -34.2578125 32.4765625 C-35.74751184 23.44327927 -35.83067349 14.18070617 -31.046875 6.171875 C-24.31379233 -2.92888509 -9.98808798 -4.76874877 0 0 Z M-17.625 12.25 C-17.625 13.57 -17.625 14.89 -17.625 16.25 C-13.995 16.25 -10.365 16.25 -6.625 16.25 C-6.955 14.6 -7.285 12.95 -7.625 11.25 C-11.92029718 8.38646855 -14.00071376 8.75068914 -17.625 12.25 Z " fill="#101010" transform="translate(490.625,217.75)"/>
<path d="M0 0 C0.84035469 0.00377932 1.68070937 0.00755865 2.54652935 0.0114525 C3.8812392 0.00571418 3.8812392 0.00571418 5.24291289 -0.00014007 C8.24241657 -0.01050834 11.2417302 -0.0064707 14.24124676 -0.0025093 C16.38443196 -0.00685366 18.52761561 -0.01203587 20.67079693 -0.01799697 C26.505422 -0.03142791 32.33998245 -0.0319611 38.17461997 -0.02943367 C43.03823028 -0.02836673 47.90182737 -0.0332402 52.76543486 -0.03803909 C64.23557225 -0.04914844 75.7056769 -0.04956366 87.17581707 -0.04352492 C99.02510207 -0.03748268 110.8742684 -0.04979929 122.72353315 -0.07109499 C132.88235503 -0.08868406 143.04113905 -0.09471661 153.19997561 -0.09145725 C159.2737878 -0.08963994 165.34751535 -0.09232496 171.42131382 -0.10617179 C177.13154998 -0.11870176 182.84160054 -0.11685199 188.55183369 -0.1037609 C190.65173805 -0.10138499 192.75165529 -0.10416579 194.85154492 -0.11238402 C197.71013405 -0.12276774 200.56809067 -0.11481861 203.42665631 -0.10207289 C204.26478027 -0.10944718 205.10290424 -0.11682146 205.9664259 -0.12441921 C211.63005251 -0.0710046 211.63005251 -0.0710046 213.75398028 1.66417992 C219.62578951 8.94884568 216.21497883 29.35035142 216.2180534 38.47527391 C216.22127176 40.72582343 216.22463625 42.97637276 216.22813946 45.22692186 C216.23410028 49.9236431 216.23598228 54.62034602 216.23538738 59.31707078 C216.23528542 65.32456163 216.24898656 71.33193521 216.26615959 77.33939821 C216.27728891 81.97888045 216.27930638 86.6183343 216.27877766 91.25782853 C216.27995447 93.47292566 216.28435944 95.68802359 216.29211003 97.90310746 C216.30193766 100.99918677 216.29902187 104.09501056 216.29300457 107.19109422 C216.29862408 108.0972548 216.30424359 109.00341539 216.31003338 109.93703538 C216.28331809 115.36290083 215.94960839 120.15488947 214.05008465 125.27214891 C209.76827047 127.79473009 205.21446372 127.55799035 200.38942486 127.53957444 C199.08255509 127.54637111 199.08255509 127.54637111 197.74928391 127.55330509 C194.83053529 127.56596331 191.91197292 127.56432782 188.99319988 127.56267625 C186.90045452 127.56866045 184.80771137 127.57546574 182.71497113 127.58303148 C177.0312838 127.60070574 171.34765669 127.60538735 165.66394454 127.60666305 C160.9220579 127.60856147 156.18018531 127.61591803 151.43830407 127.62300724 C140.2552608 127.6392928 129.07224974 127.64417588 117.88919598 127.64275438 C106.34260051 127.64155162 94.79619156 127.66267989 83.24964333 127.6942417 C73.34212205 127.72036098 63.43466187 127.73112356 53.5271064 127.72984356 C47.60697428 127.72933282 41.68700804 127.73507838 35.76691014 127.75619966 C30.20268733 127.7755098 24.63878996 127.77575612 19.07455593 127.76116639 C17.02989182 127.75906848 14.98520772 127.76383727 12.94057804 127.77588731 C10.15458526 127.79124641 7.36972785 127.78209398 4.5837608 127.76662523 C3.77005078 127.77691235 2.95634075 127.78719948 2.11797285 127.79779834 C-1.43550107 127.75403631 -3.53228421 127.57853625 -6.43690056 125.44761831 C-9.7108013 120.74028106 -9.07570026 114.63897323 -9.07930988 109.10393602 C-9.08103388 108.42203014 -9.08275787 107.74012426 -9.08453411 107.03755456 C-9.08884629 104.79150901 -9.08594012 102.54553908 -9.08272785 100.29949266 C-9.083828 98.70712078 -9.08525897 97.1147491 -9.08700031 95.52237779 C-9.08989211 91.28898743 -9.08563122 87.05563614 -9.07889026 82.82225114 C-9.07491989 80.21263456 -9.0724066 77.60301998 -9.07021564 74.99340135 C-9.03239922 35.95914493 -9.03239922 35.95914493 -8.57491535 16.64714891 C-8.55962787 15.88087175 -8.5443404 15.11459459 -8.52858967 14.32509691 C-8.48479291 12.25249647 -8.42500207 10.18025116 -8.36397785 8.10808641 C-8.33255695 7.01028856 -8.30113605 5.9124907 -8.26876301 4.78142625 C-7.6085837 -0.41407366 -4.52606265 0.03466375 0 0 Z M-4.44804043 4.00375921 C-6.17596885 6.61357376 -6.45221685 7.94721579 -6.45784992 11.05413133 C-6.46912922 12.01306291 -6.48040851 12.97199449 -6.49202961 13.9599846 C-6.48393268 15.00530351 -6.47583576 16.05062242 -6.46749347 17.12761766 C-6.47450275 18.23368364 -6.48151203 19.33974962 -6.48873371 20.47933275 C-6.50635552 24.13969264 -6.49467535 27.79928099 -6.48116535 31.45964891 C-6.48385904 34.00025914 -6.48774043 36.54086838 -6.49276203 39.08147508 C-6.4986628 44.40783779 -6.49045614 49.73392333 -6.47139972 55.06023484 C-6.44963101 61.2156711 -6.45668254 67.37057739 -6.47870535 73.5260008 C-6.4990528 79.4505938 -6.49688864 85.37502229 -6.48517841 91.29964525 C-6.48250675 93.81948242 -6.48579625 96.33933309 -6.49509662 98.85915452 C-6.50523549 102.37869617 -6.48979676 105.89721486 -6.46749347 109.41668016 C-6.4755904 110.46199907 -6.48368732 111.50731797 -6.49202961 112.58431321 C-6.48075031 113.54324479 -6.46947101 114.50217637 -6.45784992 115.49016649 C-6.45634182 116.32195924 -6.45483371 117.153752 -6.45327991 118.01075059 C-5.72508223 121.28222645 -4.70589923 122.35976431 -1.94991535 124.27214891 C0.99651177 124.66489672 3.56873853 124.81267078 6.51456219 124.78008348 C7.37678717 124.78632344 8.23901216 124.7925634 9.12736517 124.79899246 C12.02180354 124.81497051 14.91540539 124.80229943 17.80985028 124.78972703 C19.88274652 124.79514601 21.95563891 124.8022674 24.02852398 124.81096727 C29.66276925 124.82923015 35.29672213 124.82212076 40.93097264 124.80945092 C46.82147417 124.79933865 52.71195032 124.80871167 58.60245281 124.81499559 C68.4953616 124.82227715 78.38815101 124.81267088 88.28104168 124.79363328 C99.72595701 124.77186365 111.17058733 124.77891465 122.61549574 124.8009389 C132.43384151 124.81907834 142.25210137 124.82165834 152.07045847 124.81118423 C157.93804844 124.80494131 163.80550435 124.80413565 169.67308575 124.81733018 C175.18890082 124.82886681 180.70434767 124.82090278 186.22012287 124.79775316 C188.24703697 124.79245439 190.27398193 124.7939997 192.30088383 124.80280381 C195.06287963 124.81369674 197.82368749 124.80007162 200.58560711 124.78008348 C201.39221736 124.78900636 202.1988276 124.79792925 203.02988058 124.80712253 C206.51160268 124.75807714 208.65461263 124.54685123 211.54820973 122.53690416 C213.27255285 119.93667754 213.54865247 118.62404429 213.54456097 115.52813035 C213.55294995 114.57761293 213.56133892 113.6270955 213.56998211 112.64777452 C213.5587431 111.61180635 213.54750408 110.57583818 213.53592449 109.50847703 C213.54161953 107.86400842 213.54161953 107.86400842 213.54742962 106.18631822 C213.55484575 102.55838847 213.53343666 98.93125763 213.51102215 95.30339891 C213.50863827 92.78521139 213.50773229 90.26702207 213.50824505 87.74883348 C213.50511521 82.46956428 213.48902106 77.19050118 213.46170574 71.91130906 C213.43025573 65.8105264 213.41970961 59.70999571 213.42117685 53.60913783 C213.42239832 47.73687913 213.41196239 41.86470501 213.39559323 35.99247056 C213.38922155 33.49496787 213.38528547 30.99745775 213.38380581 28.49994737 C213.37947683 25.01177636 213.36198398 21.52392358 213.34061199 18.03582078 C213.34197155 16.48186853 213.34197155 16.48186853 213.34335858 14.8965233 C213.33056362 13.47074716 213.33056362 13.47074716 213.31751019 12.01616746 C213.3141585 11.19174905 213.31080681 10.36733064 213.30735356 9.51792985 C213.02023383 7.01157171 212.38729092 5.40292104 211.05008465 3.27214891 C207.84186401 1.66803859 204.35055622 2.1241781 200.82611614 2.12497789 C199.53534194 2.11946285 199.53534194 2.11946285 198.21849149 2.11383641 C195.31811166 2.10277162 192.41776762 2.09895103 189.51736981 2.09514695 C187.44477241 2.08888451 185.37217614 2.08223791 183.29958111 2.07523423 C177.65705285 2.05780638 172.01453306 2.04726804 166.37198454 2.0390287 C162.84988179 2.03388334 159.32778169 2.02780746 155.80568081 2.02151757 C144.79485392 2.00246228 133.78403376 1.98823071 122.77319354 1.97990561 C110.04584104 1.97012475 97.31866208 1.94378445 84.59137076 1.90340471 C74.76459613 1.87329267 64.93787139 1.85844149 55.1110515 1.85512459 C49.23669415 1.85276888 43.36252211 1.84374061 37.48821408 1.81866342 C31.96426298 1.79546297 26.44062028 1.79111705 20.91663319 1.8014248 C18.88647905 1.8019222 16.85631013 1.79554209 14.82620198 1.78186876 C12.05976722 1.76427491 9.29445433 1.77119391 6.52802044 1.78440171 C5.72004596 1.77343247 4.91207147 1.76246322 4.07961291 1.75116158 C0.5951119 1.79147306 -1.5499558 1.99491136 -4.44804043 4.00375921 Z " fill="#3F5EE5" transform="translate(236.9499153494835,55.7278510928154)"/>
<path d="M0 0 C4.87920984 3.28408355 4.87920984 3.28408355 6.25 5.1875 C6.25 7.4975 6.25 9.8075 6.25 12.1875 C-1.175 13.6725 -1.175 13.6725 -8.75 15.1875 C-9.41 13.8675 -10.07 12.5475 -10.75 11.1875 C-12.4 11.5175 -14.05 11.8475 -15.75 12.1875 C-12.61434667 14.83438243 -9.72385845 16.00373452 -5.8125 17.1875 C-0.54020694 18.78718437 3.83952136 20.2128299 7.125 24.8125 C8.79526603 29.8232981 8.33910231 34.4166211 6.41015625 39.32421875 C5.09607208 41.43471758 4.05074238 42.21112034 1.875 43.375 C1.28976562 43.69855469 0.70453125 44.02210938 0.1015625 44.35546875 C-4.3553366 46.35825252 -8.73366686 46.40182995 -13.5625 46.4375 C-14.24892578 46.458125 -14.93535156 46.47875 -15.64257812 46.5 C-21.70171643 46.54585914 -26.17489864 45.08494311 -31.125 41.4375 C-33.29125041 38.43807635 -33.47007133 35.82657275 -33.75 32.1875 C-32.0008503 31.84973316 -30.25063855 31.51746329 -28.5 31.1875 C-27.52546875 31.001875 -26.5509375 30.81625 -25.546875 30.625 C-22.75 30.1875 -22.75 30.1875 -18.75 30.1875 C-18.09 31.1775 -17.43 32.1675 -16.75 33.1875 C-13.16642759 33.43765873 -13.16642759 33.43765873 -9.75 33.1875 C-9.75 32.5275 -9.75 31.8675 -9.75 31.1875 C-10.84699219 30.80078125 -11.94398438 30.4140625 -13.07421875 30.015625 C-14.52882847 29.49008858 -15.9832455 28.9640186 -17.4375 28.4375 C-18.15873047 28.18484375 -18.87996094 27.9321875 -19.62304688 27.671875 C-24.72877161 25.80677008 -29.06793145 23.78706049 -32.125 19.0625 C-33.08814648 14.63202621 -32.85753 10.58142622 -31.75 6.1875 C-24.88811741 -3.29804357 -10.2443394 -4.94161084 0 0 Z " fill="#101010" transform="translate(538.75,217.8125)"/>
<path d="M0 0 C4.95 0 9.9 0 15 0 C15 3.96 15 7.92 15 12 C18.96 12 22.92 12 27 12 C27 15.96 27 19.92 27 24 C23.04 24 19.08 24 15 24 C15.33 30.93 15.66 37.86 16 45 C16.66 45 17.32 45 18 45 C18.66 43.68 19.32 42.36 20 41 C21.45903258 41.30921884 22.91720722 41.62248799 24.375 41.9375 C25.18710937 42.11152344 25.99921875 42.28554687 26.8359375 42.46484375 C29 43 29 43 31 44 C30.63015313 50.16411455 29.29761357 52.80005946 25 57 C20.5185376 59.81691922 15.12503829 59.52648868 10 59 C5.26170231 57.33282118 2.7988062 55.14637955 0 51 C-1.0394775 47.8815675 -1.11494838 45.72524414 -1.09765625 42.45703125 C-1.09443359 41.38388672 -1.09121094 40.31074219 -1.08789062 39.20507812 C-1.07951172 38.08552734 -1.07113281 36.96597656 -1.0625 35.8125 C-1.05798828 34.68134766 -1.05347656 33.55019531 -1.04882812 32.38476562 C-1.03703498 29.58979073 -1.0205765 26.7949218 -1 24 C-2.98 24 -4.96 24 -7 24 C-7 20.04 -7 16.08 -7 12 C-5.02 12 -3.04 12 -1 12 C-0.67 8.04 -0.34 4.08 0 0 Z " fill="#101010" transform="translate(557,205)"/>
<path d="M0 0 C2.5625 1.5 2.5625 1.5 4 3 C3.44401164 7.22703482 2.02497374 9.85684559 -0.4375 13.3125 C-1.05496094 14.19550781 -1.67242187 15.07851562 -2.30859375 15.98828125 C-2.86675781 16.65214844 -3.42492187 17.31601563 -4 18 C-4.66 18 -5.32 18 -6 18 C-6 17.34 -6 16.68 -6 16 C-8.91038542 16.02525184 -8.91038542 16.02525184 -12 17 C-16.00511086 22.51647345 -15.55269563 28.83506248 -15.6875 35.375 C-15.72166016 36.49261719 -15.75582031 37.61023438 -15.79101562 38.76171875 C-15.87315341 41.50746764 -15.93826185 44.25371669 -16 47 C-21.28 47 -26.56 47 -32 47 C-32 31.82 -32 16.64 -32 1 C-27.05 1 -22.1 1 -17 1 C-16.67 2.32 -16.34 3.64 -16 5 C-15.401875 4.360625 -14.80375 3.72125 -14.1875 3.0625 C-10.14809034 -0.74608625 -5.28031002 -0.57187473 0 0 Z " fill="#101010" transform="translate(240,216)"/>
<path d="M0 0 C3.125 2 3.125 2 5 4 C3.6744419 7.62276315 2.05653045 10.63505348 -0.125 13.8125 C-0.66382813 14.60269531 -1.20265625 15.39289063 -1.7578125 16.20703125 C-2.16773438 16.79871094 -2.57765625 17.39039063 -3 18 C-5.31 17.34 -7.62 16.68 -10 16 C-12.91520962 18.66171313 -13.89249553 20.62008238 -14.20532227 24.63549805 C-14.24197998 25.66715088 -14.2786377 26.69880371 -14.31640625 27.76171875 C-14.35830078 28.87998047 -14.40019531 29.99824219 -14.44335938 31.15039062 C-14.48267578 32.31763672 -14.52199219 33.48488281 -14.5625 34.6875 C-14.60568359 35.86634766 -14.64886719 37.04519531 -14.69335938 38.25976562 C-14.79951094 41.17303626 -14.90026629 44.0865026 -15 47 C-20.28 47 -25.56 47 -31 47 C-31 31.82 -31 16.64 -31 1 C-26.05 1 -21.1 1 -16 1 C-15.67 1.99 -15.34 2.98 -15 4 C-14.38125 3.34 -13.7625 2.68 -13.125 2 C-8.77960176 -0.78105487 -5.03767475 -0.85888225 0 0 Z " fill="#101010" transform="translate(379,216)"/>
<path d="M0 0 C0.84035469 0.00377932 1.68070937 0.00755865 2.54652935 0.0114525 C3.8812392 0.00571418 3.8812392 0.00571418 5.24291289 -0.00014007 C8.24241657 -0.01050834 11.2417302 -0.0064707 14.24124676 -0.0025093 C16.38443196 -0.00685366 18.52761561 -0.01203587 20.67079693 -0.01799697 C26.505422 -0.03142791 32.33998245 -0.0319611 38.17461997 -0.02943367 C43.03823028 -0.02836673 47.90182737 -0.0332402 52.76543486 -0.03803909 C64.23557225 -0.04914844 75.7056769 -0.04956366 87.17581707 -0.04352492 C99.02510207 -0.03748268 110.8742684 -0.04979929 122.72353315 -0.07109499 C132.88235503 -0.08868406 143.04113905 -0.09471661 153.19997561 -0.09145725 C159.2737878 -0.08963994 165.34751535 -0.09232496 171.42131382 -0.10617179 C177.13154998 -0.11870176 182.84160054 -0.11685199 188.55183369 -0.1037609 C190.65173805 -0.10138499 192.75165529 -0.10416579 194.85154492 -0.11238402 C197.71013405 -0.12276774 200.56809067 -0.11481861 203.42665631 -0.10207289 C204.26478027 -0.10944718 205.10290424 -0.11682146 205.9664259 -0.12441921 C211.62414507 -0.07106032 211.62414507 -0.07106032 213.78559363 1.67056954 C215.05008465 3.27214891 215.05008465 3.27214891 215.05008465 5.27214891 C214.06008465 5.60214891 213.07008465 5.93214891 212.05008465 6.27214891 C211.72732304 5.78500602 211.40456143 5.29786313 211.07201916 4.79595834 C207.91111802 2.41377883 204.50370085 2.85977285 200.6991325 2.89119798 C199.83705638 2.88651801 198.97498025 2.88183804 198.08678061 2.87701625 C195.1870241 2.86501357 192.28773561 2.87454402 189.38797528 2.88396531 C187.31360621 2.87990195 185.2392393 2.87456141 183.16487652 2.86803514 C177.52241699 2.85432772 171.88012153 2.85967433 166.23765904 2.86917239 C160.34134871 2.87675126 154.44505273 2.86972833 148.54874188 2.8650139 C138.64568065 2.85955117 128.74268648 2.86676154 118.83963543 2.88103563 C107.37942672 2.89736309 95.9193781 2.89207495 84.45917326 2.87555641 C74.63153243 2.86195629 64.80393987 2.86001467 54.97629267 2.86787242 C49.10147466 2.87255704 43.22673197 2.87315213 37.35191876 2.86326295 C31.82961339 2.854617 26.30751506 2.86057176 20.78523213 2.87794572 C18.754671 2.88192327 16.72409255 2.88075498 14.69353825 2.87415773 C11.92913332 2.86600214 9.16539862 2.87619103 6.4010368 2.89119798 C5.18572899 2.88115973 5.18572899 2.88115973 3.94586951 2.87091869 C-0.20245914 2.90346508 -0.20245914 2.90346508 -3.9469294 4.50291806 C-5.24139696 6.7863119 -5.33420238 8.33553059 -5.34864277 10.96079332 C-5.36118091 11.92413087 -5.37371906 12.88746843 -5.38663715 13.87999803 C-5.38448452 15.46279557 -5.38448452 15.46279557 -5.3822884 17.07756883 C-5.39248005 18.18991395 -5.4026717 19.30225908 -5.41317219 20.44831163 C-5.44341982 24.13313076 -5.4525863 27.81769044 -5.4616341 31.50261766 C-5.47847201 34.05424701 -5.49662104 36.60586803 -5.51603168 39.15747911 C-5.5587659 45.19225327 -5.58825382 51.22695223 -5.61135507 57.26182187 C-5.63839249 64.13245764 -5.68230481 71.00295302 -5.72764379 77.87348861 C-5.8205283 92.00629916 -5.89219153 106.13915414 -5.94991535 120.27214891 C-6.27991535 120.27214891 -6.60991535 120.27214891 -6.94991535 120.27214891 C-7.88644672 116.28097096 -8.10811712 112.51784491 -8.17110676 108.42278367 C-8.18258149 107.75092058 -8.19405622 107.0790575 -8.20587867 106.38683492 C-8.24246673 104.16245402 -8.27218276 101.93804322 -8.30147785 99.71355516 C-8.32513607 98.14078757 -8.3490309 96.56802353 -8.37314838 94.99526292 C-8.43548791 90.80469015 -8.49049287 86.61405528 -8.54265445 82.42334443 C-8.57484176 79.84055424 -8.60834784 77.25778342 -8.64196247 74.67501146 C-8.88888897 55.3522107 -9.13469318 36.03047321 -8.63741535 16.70964891 C-8.62035541 15.94178056 -8.60329548 15.17391221 -8.58571857 14.38277513 C-8.53595348 12.30230337 -8.47158172 10.2230334 -8.3991341 8.14324266 C-8.36134845 7.03908006 -8.32356281 5.93491746 -8.28463215 4.79729539 C-7.59521047 -0.40379022 -4.5486438 0.0348367 0 0 Z " fill="#4967D8" transform="translate(236.9499153494835,55.7278510928154)"/>
<path d="M0 0 C3.125 0.1875 3.125 0.1875 6.125 2.1875 C6.3125 5.8125 6.3125 5.8125 6.125 9.1875 C5.135 9.6825 5.135 9.6825 4.125 10.1875 C3.65976937 12.08283342 3.65976937 12.08283342 3.5 14.25 C3.37625 15.549375 3.2525 16.84875 3.125 18.1875 C2.465 18.1875 1.805 18.1875 1.125 18.1875 C0.5475 18.8475 -0.03 19.5075 -0.625 20.1875 C-2.875 22.1875 -2.875 22.1875 -5.9375 22.5625 C-8.875 22.1875 -8.875 22.1875 -11.875 20.1875 C-11.875 19.5275 -11.875 18.8675 -11.875 18.1875 C-12.535 17.8575 -13.195 17.5275 -13.875 17.1875 C-13.215 15.5375 -12.555 13.8875 -11.875 12.1875 C-11.215 12.1875 -10.555 12.1875 -9.875 12.1875 C-10.205 11.1975 -10.535 10.2075 -10.875 9.1875 C-10.09125 8.98125 -9.3075 8.775 -8.5 8.5625 C-5.5732822 7.38895792 -5.5732822 7.38895792 -4.625 4.125 C-4.25375 2.6709375 -4.25375 2.6709375 -3.875 1.1875 C-2.875 0.1875 -2.875 0.1875 0 0 Z " fill="#014AAB" transform="translate(322.875,138.8125)"/>
<path d="M0 0 C2 2 2 2 2.24609566 3.79221535 C2.24333028 4.88454003 2.24333028 4.88454003 2.24050903 5.99893188 C2.24325836 6.83468246 2.24600769 7.67043304 2.24884033 8.5315094 C2.24164978 9.45004196 2.23445923 10.36857452 2.22705078 11.31494141 C2.22734283 12.28083694 2.22763489 13.24673248 2.22793579 14.24189758 C2.22653872 17.44520955 2.21095974 20.648291 2.1953125 23.8515625 C2.19158371 26.06830722 2.18873611 28.28505358 2.18673706 30.50180054 C2.17909004 36.34456916 2.15943237 42.18723882 2.1373291 48.02996826 C2.11689368 53.98871522 2.10774028 59.94747812 2.09765625 65.90625 C2.07618749 77.60421022 2.04203867 89.30209689 2 101 C1.67 101 1.34 101 1 101 C0.03522285 96.92190741 -0.15943469 93.06637652 -0.22119141 88.88085938 C-0.2326973 88.1823436 -0.24420319 87.48382782 -0.25605774 86.7641449 C-0.29267991 84.4573905 -0.32241262 82.1506101 -0.3515625 79.84375 C-0.37472878 78.21968271 -0.39811937 76.59561861 -0.42172241 74.97155762 C-0.47016818 71.5587095 -0.51505956 68.14583659 -0.55761719 64.73291016 C-0.60107446 61.27285682 -0.64952063 57.81293828 -0.703125 54.35302734 C-1.27011299 17.744147 -1.27011299 17.744147 0 0 Z " fill="#5A6CB6" transform="translate(229,75)"/>
<path d="M0 0 C22.11 0 44.22 0 67 0 C67 0.66 67 1.32 67 2 C58.28541608 2.78713343 49.66592107 3.1381833 40.91796875 3.09765625 C39.14768059 3.09553383 39.14768059 3.09553383 37.34162903 3.09336853 C33.62355869 3.08783323 29.90555171 3.0752934 26.1875 3.0625 C23.64518317 3.05747662 21.10286538 3.05291519 18.56054688 3.04882812 C12.37367681 3.03788511 6.18684293 3.02121302 0 3 C0 2.01 0 1.02 0 0 Z " fill="#345ADD" transform="translate(325,180)"/>
<path d="M0 0 C1.32 0.33 2.64 0.66 4 1 C3.175 1.639375 2.35 2.27875 1.5 2.9375 C-1.83579155 7.02384465 -1.4971834 9.92872936 -1 15 C-1.33 15 -1.66 15 -2 15 C-2.495 12.525 -2.495 12.525 -3 10 C-4.65 10 -6.3 10 -8 10 C-8 9.01 -8 8.02 -8 7 C-9.98 7.33 -11.96 7.66 -14 8 C-13.67 10.97 -13.34 13.94 -13 17 C-16.2296738 17.08111739 -19.45730014 17.14055592 -22.6875 17.1875 C-24.05551758 17.22520508 -24.05551758 17.22520508 -25.45117188 17.26367188 C-30.47565155 17.31848438 -33.90363103 17.28571911 -38 14 C-37.67 13.34 -37.34 12.68 -37 12 C-36.15066895 12.47542236 -36.15066895 12.47542236 -35.28417969 12.96044922 C-32.8910978 14.04956238 -31.0594679 14.38626655 -28.453125 14.6328125 C-27.60878906 14.71660156 -26.76445312 14.80039063 -25.89453125 14.88671875 C-24.58548828 15.00466797 -24.58548828 15.00466797 -23.25 15.125 C-21.91775391 15.25455078 -21.91775391 15.25455078 -20.55859375 15.38671875 C-18.37306898 15.59822115 -16.18661256 15.80005683 -14 16 C-14.66 13.03 -15.32 10.06 -16 7 C-15.01257813 6.74605469 -14.02515625 6.49210937 -13.0078125 6.23046875 C-11.71338104 5.88341104 -10.41911879 5.53572179 -9.125 5.1875 C-7.84882813 4.85105469 -6.57265625 4.51460938 -5.2578125 4.16796875 C-1.75428532 3.27713341 -1.75428532 3.27713341 0 0 Z " fill="#0E4794" transform="translate(406,80)"/>
<path d="M0 0 C0.33 0 0.66 0 1 0 C1.50688605 2.54046458 2.00566874 5.08208876 2.5 7.625 C2.64308594 8.33785156 2.78617187 9.05070313 2.93359375 9.78515625 C3.73232533 13.93095351 4.10098272 17.75872576 4 22 C4.43941523 24.26566343 4.43941523 24.26566343 5 26 C3.35 26 1.7 26 0 26 C-0.99 22.04 -1.98 18.08 -3 14 C-4.0725 14.350625 -5.145 14.70125 -6.25 15.0625 C-10.92307692 16.23076923 -10.92307692 16.23076923 -14 15 C-9.37559575 12.92373687 -4.8991349 11.29977048 0 10 C0 6.7 0 3.4 0 0 Z " fill="#0C4897" transform="translate(401,119)"/>
<path d="M0 0 C13.86 0 27.72 0 42 0 C41.67 0.99 41.34 1.98 41 3 C28.13 3 15.26 3 2 3 C2 2.34 2 1.68 2 1 C1.34 0.67 0.68 0.34 0 0 Z " fill="#3E61D3" transform="translate(283,180)"/>
<path d="M0 0 C1.94068574 3.21083554 2.15181701 5.08909796 1.5390625 8.765625 C1.32636719 10.09980469 1.32636719 10.09980469 1.109375 11.4609375 C0.94953125 12.38132812 0.7896875 13.30171875 0.625 14.25 C0.39683594 15.65378906 0.39683594 15.65378906 0.1640625 17.0859375 C-0.21256217 19.3927636 -0.60093472 21.69696829 -1 24 C-1.99 24.33 -2.98 24.66 -4 25 C-3.40546697 6.95899772 -3.40546697 6.95899772 0 0 Z " fill="#034AA5" transform="translate(284,101)"/>
<path d="M0 0 C2 2 2 2 2.22705078 4.88916016 C2.21657715 6.09362793 2.20610352 7.2980957 2.1953125 8.5390625 C2.18886719 9.84101562 2.18242187 11.14296875 2.17578125 12.484375 C2.15906929 13.86458595 2.14213939 15.24479429 2.125 16.625 C2.11497006 18.01301452 2.10584423 19.40103589 2.09765625 20.7890625 C2.07401863 24.19288026 2.04106867 27.59635506 2 31 C1.34 31.33 0.68 31.66 0 32 C-0.96012994 24.70541526 -0.98855619 17.71100191 -0.5625 10.375 C-0.51029297 9.37082031 -0.45808594 8.36664063 -0.40429688 7.33203125 C-0.27625404 4.88757705 -0.14139033 2.44371218 0 0 Z " fill="#556ABB" transform="translate(229,75)"/>
<path d="M0 0 C0.33 0 0.66 0 1 0 C1 1.65 1 3.3 1 5 C1.66 5 2.32 5 3 5 C3.556875 5.7115625 3.556875 5.7115625 4.125 6.4375 C7.10178935 8.91815779 10.18902265 8.68762481 14 9 C14 9.33 14 9.66 14 10 C16.97 10.495 16.97 10.495 20 11 C20 11.33 20 11.66 20 12 C17.41554227 12.1081866 14.83562648 12.18737237 12.25 12.25 C11.52039063 12.28351563 10.79078125 12.31703125 10.0390625 12.3515625 C6.50439682 12.41582915 4.43730016 12.31671342 1.53515625 10.21484375 C-0.5526309 7.20269283 -0.79527748 4.61676452 -1 1 C-0.67 0.67 -0.34 0.34 0 0 Z " fill="#2F46ED" transform="translate(229,171)"/>
<path d="M0 0 C2.4375 2 2.4375 2 4 4 C3.67 4.66 3.34 5.32 3 6 C2.62875 5.54625 2.2575 5.0925 1.875 4.625 C-0.54264685 2.52970606 -2.95430602 1.87986715 -6 1 C-6.28875 1.639375 -6.5775 2.27875 -6.875 2.9375 C-8 5 -8 5 -10 6 C-9.67 7.32 -9.34 8.64 -9 10 C-9.66 9.67 -10.32 9.34 -11 9 C-11 8.34 -11 7.68 -11 7 C-11.99 7.33 -12.98 7.66 -14 8 C-13.125 3.25 -13.125 3.25 -12 1 C-8.01641018 -0.17164407 -4.12303811 -0.37482165 0 0 Z " fill="#0C4793" transform="translate(296,129)"/>
<path d="M0 0 C3.24299151 2.38957269 5.50902342 4.2047869 7 8 C5.35 7.67 3.7 7.34 2 7 C1.67 8.65 1.34 10.3 1 12 C-0.32 11.67 -1.64 11.34 -3 11 C-2.01 10.34 -1.02 9.68 0 9 C-0.495 8.401875 -0.99 7.80375 -1.5 7.1875 C-3 5 -3 5 -3 2 C-2.01 1.34 -1.02 0.68 0 0 Z " fill="#0B4697" transform="translate(344,153)"/>
<path d="M0 0 C2.125 0.375 2.125 0.375 4 1 C4 1.66 4 2.32 4 3 C3.51917969 3.37769531 3.03835937 3.75539062 2.54296875 4.14453125 C0.17827495 6.98815038 0.42842064 10.1403283 0.3125 13.6875 C0.27833984 14.38939453 0.24417969 15.09128906 0.20898438 15.81445312 C0.12670053 17.54241387 0.0616676 19.27118072 0 21 C-2.62723824 18.37276176 -2.26115971 16.45788327 -2.2734375 12.87890625 C-2.26570312 12.09386719 -2.25796875 11.30882813 -2.25 10.5 C-2.25773438 9.71496094 -2.26546875 8.92992188 -2.2734375 8.12109375 C-2.25330787 2.25330787 -2.25330787 2.25330787 0 0 Z " fill="#566CC7" transform="translate(231,56)"/>
<path d="M0 0 C2.71435596 0.93305986 3.78043163 1.62673377 5.25 4.125 C5.4975 4.74375 5.745 5.3625 6 6 C5.01 6 4.02 6 3 6 C3.33 7.98 3.66 9.96 4 12 C1.66666667 9.66666667 -0.66666667 7.33333333 -3 5 C-2.75 2.9375 -2.75 2.9375 -2 1 C-1.34 0.67 -0.68 0.34 0 0 Z " fill="#0F4693" transform="translate(358,123)"/>
<path d="M0 0 C0.75 1.625 0.75 1.625 1 4 C-1.02291546 7.61234904 -2.53871879 9.6924792 -6 12 C-5.67 10.02 -5.34 8.04 -5 6 C-5.66 6 -6.32 6 -7 6 C-6.25 4.0625 -6.25 4.0625 -5 2 C-2.9375 1.3125 -2.9375 1.3125 -1 1 C-0.67 0.67 -0.34 0.34 0 0 Z " fill="#0D4894" transform="translate(390,137)"/>
<path d="M0 0 C2.32758311 0.93103324 3.74357132 1.65382128 5.25 3.6875 C6.27095909 6.83545718 6.12632947 9.71543368 6 13 C5.01 13 4.02 13 3 13 C2.690625 12.030625 2.38125 11.06125 2.0625 10.0625 C1.30476658 7.15934208 1.30476658 7.15934208 0 6 C-0.04080783 4.00041636 -0.04254356 1.99954746 0 0 Z " fill="#0449A7" transform="translate(358,150)"/>
<path d="M0 0 C2.97 0 5.94 0 9 0 C8.67 1.32 8.34 2.64 8 4 C4.04 4 0.08 4 -4 4 C-4.33 3.34 -4.66 2.68 -5 2 C-3.35 1.67 -1.7 1.34 0 1 C0 0.67 0 0.34 0 0 Z " fill="#0448A9" transform="translate(298,87)"/>
<path d="M0 0 C0.639375 0.33 1.27875 0.66 1.9375 1 C3.76794567 2.07271225 3.76794567 2.07271225 5 2 C5 4.64 5 7.28 5 10 C4.01 9.01 3.02 8.02 2 7 C1.01 10.465 1.01 10.465 0 14 C-0.33 14 -0.66 14 -1 14 C-1.18451025 4.58997722 -1.18451025 4.58997722 0 0 Z " fill="#0D448D" transform="translate(282,95)"/>
<path d="M0 0 C2.64752004 2.57784846 4.94432065 4.91648098 7 8 C9.05925139 8.72382467 9.05925139 8.72382467 11 9 C9.35 9.33 7.7 9.66 6 10 C5.38125 9.195625 4.7625 8.39125 4.125 7.5625 C2.25835959 4.96125481 2.25835959 4.96125481 0 4 C-0.33 5.32 -0.66 6.64 -1 8 C-2.32 6.35 -3.64 4.7 -5 3 C-4.34 2.67 -3.68 2.34 -3 2 C-3 2.66 -3 3.32 -3 4 C-2.34 3.67 -1.68 3.34 -1 3 C-0.67 2.01 -0.34 1.02 0 0 Z " fill="#0E458F" transform="translate(358,146)"/>
<path d="M0 0 C5.61 0 11.22 0 17 0 C16.67 0.99 16.34 1.98 16 3 C13.51979503 2.88658509 11.04155031 2.75985314 8.5625 2.625 C7.85544922 2.5940625 7.14839844 2.563125 6.41992188 2.53125 C4.60760812 2.42719371 2.80182012 2.22080108 1 2 C0.67 1.34 0.34 0.68 0 0 Z " fill="#4260E6" transform="translate(234,56)"/>
<path d="M0 0 C0.99 0.33 1.98 0.66 3 1 C2.375 4.375 2.375 4.375 1 8 C-2.125 9.4375 -2.125 9.4375 -5 10 C-5 9.34 -5 8.68 -5 8 C-4.34 7.67 -3.68 7.34 -3 7 C-2.835 6.01 -2.67 5.02 -2.5 4 C-2.335 3.01 -2.17 2.02 -2 1 C-1.34 0.67 -0.68 0.34 0 0 Z " fill="#024BAE" transform="translate(281,129)"/>
<path d="M0 0 C0.33 0 0.66 0 1 0 C1 1.65 1 3.3 1 5 C1.66 5 2.32 5 3 5 C4.625 7 4.625 7 6 9 C5.01 9.66 4.02 10.32 3 11 C0.24438617 8.96324195 -0.03270868 7.84190804 -0.75 4.375 C-0.8325 3.26125 -0.915 2.1475 -1 1 C-0.67 0.67 -0.34 0.34 0 0 Z " fill="#455CD8" transform="translate(229,171)"/>
<path d="M0 0 C2.83022097 3.99560608 1.76210446 7.42737323 1 12 C-0.32 12 -1.64 12 -3 12 C-3 10.35 -3 8.7 -3 7 C-2.01 6.67 -1.02 6.34 0 6 C0 4.02 0 2.04 0 0 Z " fill="#0D4692" transform="translate(329,142)"/>
<path d="M0 0 C1.98 0.495 1.98 0.495 4 1 C4 2.65 4 4.3 4 6 C4.66 6 5.32 6 6 6 C6.33 6.99 6.66 7.98 7 9 C6.01 9 5.02 9 4 9 C1.25 6.1875 1.25 6.1875 -1 3 C-0.67 2.01 -0.34 1.02 0 0 Z " fill="#084798" transform="translate(379,129)"/>
<path d="M0 0 C3.0625 0.3125 3.0625 0.3125 4.9375 1.8125 C5.30875 2.3075 5.68 2.8025 6.0625 3.3125 C3.72932784 4.09022405 1.44814077 4.73665568 -0.9375 5.3125 C-0.2775 4.9825 0.3825 4.6525 1.0625 4.3125 C0.134375 4.0959375 0.134375 4.0959375 -0.8125 3.875 C-2.9375 3.3125 -2.9375 3.3125 -4.9375 2.3125 C-2.9375 0.3125 -2.9375 0.3125 0 0 Z " fill="#114693" transform="translate(322.9375,138.6875)"/>
<path d="M0 0 C0.33 0 0.66 0 1 0 C1 3.63 1 7.26 1 11 C0.01 11.495 0.01 11.495 -1 12 C-1.22162329 10.37675914 -1.42689803 8.751279 -1.625 7.125 C-1.74101562 6.22007813 -1.85703125 5.31515625 -1.9765625 4.3828125 C-1.98429688 3.59648438 -1.99203125 2.81015625 -2 2 C-1.34 1.34 -0.68 0.68 0 0 Z " fill="#455CCE" transform="translate(230,95)"/>
<path d="M0 0 C2 1 2 1 2.875 3.125 C3.05899297 7.3568384 1.28005659 9.47627618 -1 13 C-1.33 13 -1.66 13 -2 13 C-2 11.02 -2 9.04 -2 7 C-1.01 6.67 -0.02 6.34 1 6 C0.67 4.02 0.34 2.04 0 0 Z " fill="#0D4490" transform="translate(337,151)"/>
<path d="M0 0 C1.32 0 2.64 0 4 0 C4.66 1.65 5.32 3.3 6 5 C3.69 4.67 1.38 4.34 -1 4 C-0.67 2.68 -0.34 1.36 0 0 Z " fill="#014BAD" transform="translate(332,152)"/>
<path d="M0 0 C2.5625 2.25 2.5625 2.25 5 5 C4.8125 7.3125 4.8125 7.3125 4 9 C3.34 9 2.68 9 2 9 C1.34 6.03 0.68 3.06 0 0 Z " fill="#044BA9" transform="translate(360,126)"/>
<path d="M0 0 C2.125 0.375 2.125 0.375 4 1 C4 1.66 4 2.32 4 3 C2.37373596 4.38232443 0.7074998 5.71937515 -1 7 C-1.625 4.625 -1.625 4.625 -2 2 C-1.34 1.34 -0.68 0.68 0 0 Z " fill="#5378DF" transform="translate(231,56)"/>
<path d="M0 0 C2 1 2 1 4 3 C4.99 2.67 5.98 2.34 7 2 C7.99 2.66 8.98 3.32 10 4 C8.5225254 4.36116046 7.04295325 4.71375048 5.5625 5.0625 C4.73878906 5.25972656 3.91507813 5.45695313 3.06640625 5.66015625 C2.38449219 5.77230469 1.70257813 5.88445312 1 6 C0 5 0 5 -0.0625 2.4375 C-0.041875 1.633125 -0.02125 0.82875 0 0 Z " fill="#090909" transform="translate(134,217)"/>
<path d="M0 0 C2.05078125 0.03255208 4.1015625 0.06510417 6.15234375 0.09765625 C5.82234375 1.08765625 5.49234375 2.07765625 5.15234375 3.09765625 C2.27734375 3.22265625 2.27734375 3.22265625 -0.84765625 3.09765625 C-1.50765625 2.43765625 -2.16765625 1.77765625 -2.84765625 1.09765625 C-1.84765625 0.09765625 -1.84765625 0.09765625 0 0 Z " fill="#314FE2" transform="translate(340.84765625,179.90234375)"/>
<path d="M0 0 C0.99 0 1.98 0 3 0 C2.67 1.65 2.34 3.3 2 5 C0.02 5 -1.96 5 -4 5 C-2.1875 2.5 -2.1875 2.5 0 0 Z " fill="#556EDB" transform="translate(449,176)"/>
<path d="M0 0 C1.98 0.66 3.96 1.32 6 2 C5.38125 2.2475 4.7625 2.495 4.125 2.75 C1.64931313 4.20628639 1.04874998 5.37812506 0 8 C-0.38063221 5.6739143 -0.71269945 3.33944736 -1 1 C-0.67 0.67 -0.34 0.34 0 0 Z " fill="#0A4898" transform="translate(377,147)"/>
<path d="M0 0 C1.32 0.33 2.64 0.66 4 1 C4.33 2.65 4.66 4.3 5 6 C3.68 5.67 2.36 5.34 1 5 C0.67 3.35 0.34 1.7 0 0 Z " fill="#054AA8" transform="translate(365,135)"/>
<path d="M0 0 C0.99 0.33 1.98 0.66 3 1 C4.66621616 1.03874921 6.33394172 1.0450286 8 1 C8 2.32 8 3.64 8 5 C5.36 4.34 2.72 3.68 0 3 C0 2.01 0 1.02 0 0 Z " fill="#014CAE" transform="translate(279,82)"/>
<path d="M0 0 C2.475 0.495 2.475 0.495 5 1 C4.67 2.65 4.34 4.3 4 6 C3.34 6 2.68 6 2 6 C1.34 4.02 0.68 2.04 0 0 Z " fill="#024AB0" transform="translate(285,133)"/>
<path d="M0 0 C0.99 0 1.98 0 3 0 C3 1.65 3 3.3 3 5 C2.01 5.33 1.02 5.66 0 6 C0 5.34 0 4.68 0 4 C-0.66 3.67 -1.32 3.34 -2 3 C-1.34 3 -0.68 3 0 3 C0 2.01 0 1.02 0 0 Z " fill="#0445AB" transform="translate(355,144)"/>
<path d="M0 0 C2.64 0.66 5.28 1.32 8 2 C8 2.66 8 3.32 8 4 C5.69 4.33 3.38 4.66 1 5 C0.67 3.35 0.34 1.7 0 0 Z " fill="#0C4695" transform="translate(332,91)"/>
<path d="M0 0 C1.98 0.495 1.98 0.495 4 1 C3.67 2.32 3.34 3.64 3 5 C1.68 4.34 0.36 3.68 -1 3 C-0.67 2.01 -0.34 1.02 0 0 Z " fill="#06499F" transform="translate(350,141)"/>
<path d="M0 0 C0.99 0.33 1.98 0.66 3 1 C3.6875 3.0625 3.6875 3.0625 4 5 C3.01 5.33 2.02 5.66 1 6 C0.01 4.68 -0.98 3.36 -2 2 C-1.34 2 -0.68 2 0 2 C0 1.34 0 0.68 0 0 Z " fill="#516ECD" transform="translate(448,56)"/>
<path d="M0 0 C4 1 4 1 4 1 Z " fill="#000000" transform="translate(514,246)"/>
<path d="M0 0 C3 1 3 1 3 1 Z " fill="#000000" transform="translate(331,246)"/>
<path d="M0 0 C3 1 3 1 3 1 Z " fill="#000000" transform="translate(511,244)"/>
<path d="M0 0 C2 1 2 1 2 1 Z " fill="#000000" transform="translate(500,254)"/>
<path d="M0 0 C2 1 2 1 2 1 Z " fill="#000000" transform="translate(573,246)"/>
<path d="" fill="#000000" transform="translate(0,0)"/>
<path d="" fill="#000000" transform="translate(0,0)"/>
<path d="" fill="#000000" transform="translate(0,0)"/>
<path d="" fill="#000000" transform="translate(0,0)"/>
<path d="" fill="#000000" transform="translate(0,0)"/>
<path d="" fill="#000000" transform="translate(0,0)"/>
<path d="" fill="#000000" transform="translate(0,0)"/>
<path d="" fill="#000000" transform="translate(0,0)"/>
<path d="" fill="#000000" transform="translate(0,0)"/>
<path d="" fill="#000000" transform="translate(0,0)"/>
<path d="" fill="#000000" transform="translate(0,0)"/>
<path d="" fill="#000000" transform="translate(0,0)"/>
<path d="" fill="#000000" transform="translate(0,0)"/>
<path d="" fill="#000000" transform="translate(0,0)"/>
<path d="" fill="#000000" transform="translate(0,0)"/>
<path d="" fill="#000000" transform="translate(0,0)"/>
<path d="" fill="#000000" transform="translate(0,0)"/>
<path d="" fill="#000000" transform="translate(0,0)"/>
<path d="" fill="#000000" transform="translate(0,0)"/>
<path d="" fill="#000000" transform="translate(0,0)"/>
<path d="" fill="#000000" transform="translate(0,0)"/>
<path d="" fill="#000000" transform="translate(0,0)"/>
<path d="" fill="#000000" transform="translate(0,0)"/>
<path d="" fill="#000000" transform="translate(0,0)"/>
<path d="" fill="#000000" transform="translate(0,0)"/>
<path d="" fill="#000000" transform="translate(0,0)"/>
<path d="" fill="#000000" transform="translate(0,0)"/>
<path d="" fill="#000000" transform="translate(0,0)"/>
<path d="" fill="#000000" transform="translate(0,0)"/>
<path d="" fill="#000000" transform="translate(0,0)"/>
<path d="" fill="#000000" transform="translate(0,0)"/>
<path d="" fill="#000000" transform="translate(0,0)"/>
<path d="" fill="#000000" transform="translate(0,0)"/>
<path d="" fill="#000000" transform="translate(0,0)"/>
<path d="" fill="#000000" transform="translate(0,0)"/>
<path d="" fill="#000000" transform="translate(0,0)"/>
<path d="" fill="#000000" transform="translate(0,0)"/>
<path d="" fill="#000000" transform="translate(0,0)"/>
<path d="" fill="#000000" transform="translate(0,0)"/>
<path d="" fill="#000000" transform="translate(0,0)"/>
<path d="" fill="#000000" transform="translate(0,0)"/>
<path d="" fill="#000000" transform="translate(0,0)"/>
<path d="" fill="#000000" transform="translate(0,0)"/>
<path d="" fill="#000000" transform="translate(0,0)"/>
<path d="" fill="#000000" transform="translate(0,0)"/>
<path d="" fill="#000000" transform="translate(0,0)"/>
<path d="" fill="#000000" transform="translate(0,0)"/>
<path d="" fill="#000000" transform="translate(0,0)"/>
<path d="" fill="#000000" transform="translate(0,0)"/>
<path d="" fill="#000000" transform="translate(0,0)"/>
<path d="" fill="#000000" transform="translate(0,0)"/>
<path d="" fill="#000000" transform="translate(0,0)"/>
</svg>
